HIERARCHY
ROOT Hips
{
    OFFSET 0.000000 0.000000 0.000000
    CHANNELS 6 Xposition Yposition Zposition Zrotation Xrotation Yrotation
    JOINT Spine
    {
        OFFSET -0.000000 14.517291 0.000000
        CHANNELS 3 Zrotation Xrotation Yrotation
        JOINT Spine1
        {
            OFFSET -0.000000 37.558300 0.000000
            CHANNELS 3 Zrotation Xrotation Yrotation
            JOINT Neck
            {
                OFFSET -0.000000 37.404057 3.400369
                CHANNELS 3 Zrotation Xrotation Yrotation
                JOINT Head
                {
                    OFFSET -0.000000 24.785618 -3.540803
                    CHANNELS 3 Zrotation Xrotation Yrotation
                    End Site
                    {
                        OFFSET -0.000000 35.408028 0.000000
                    }
                }
            }
            JOINT LeftShoulder
            {
                OFFSET 6.992933 33.973492 -0.192664
                CHANNELS 3 Zrotation Xrotation Yrotation
                JOINT LeftArm
                {
                    OFFSET 21.527611 0.000000 0.000000
                    CHANNELS 3 Zrotation Xrotation Yrotation
                    JOINT LeftForeArm
                    {
                        OFFSET 56.353916 0.000000 0.000000
                        CHANNELS 3 Zrotation Xrotation Yrotation
                        JOINT LeftHand
                        {
                            OFFSET 47.774071 0.000000 0.000000
                            CHANNELS 3 Zrotation Xrotation Yrotation
                            End Site
                            {
                                OFFSET 26.556021 0.000000 0.000000
                            }
                        }
                    }
                }
            }
            JOINT RightShoulder
            {
                OFFSET -7.065357 33.973492 -0.192664
                CHANNELS 3 Zrotation Xrotation Yrotation
                JOINT RightArm
                {
                    OFFSET -21.527611 0.000000 0.000000
                    CHANNELS 3 Zrotation Xrotation Yrotation
                    JOINT RightForeArm
                    {
                        OFFSET -56.353916 0.000000 0.000000
                        CHANNELS 3 Zrotation Xrotation Yrotation
                        JOINT RightHand
                        {
                            OFFSET -47.774071 0.000000 0.000000
                            CHANNELS 3 Zrotation Xrotation Yrotation
                            End Site
                            {
                                OFFSET -26.556021 0.000000 0.000000
                            }
                        }
                    }
                }
            }
        }
    }
    JOINT LeftUpLeg
    {
        OFFSET 17.704014 0.000000 0.000000
        CHANNELS 3 Zrotation Xrotation Yrotation
        JOINT LeftLeg
        {
            OFFSET -0.000000 -81.181816 0.000000
            CHANNELS 3 Zrotation Xrotation Yrotation
            JOINT LeftFoot
            {
                OFFSET -0.000000 -62.821102 0.000000
                CHANNELS 3 Zrotation Xrotation Yrotation
                JOINT LeftToeBase
                {
                    OFFSET -0.000000 -11.507608 26.556021
                    CHANNELS 3 Zrotation Xrotation Yrotation
                    End Site
                    {
                        OFFSET -0.000000 0.000000 7.081605
                    }
                }
            }
        }
    }
    JOINT RightUpLeg
    {
        OFFSET -17.704014 0.000000 0.000000
        CHANNELS 3 Zrotation Xrotation Yrotation
        JOINT RightLeg
        {
            OFFSET -0.000000 -81.181816 0.000000
            CHANNELS 3 Zrotation Xrotation Yrotation
            JOINT RightFoot
            {
                OFFSET -0.000000 -62.821102 0.000000
                CHANNELS 3 Zrotation Xrotation Yrotation
                JOINT RightToeBase
                {
                    OFFSET -0.000000 -11.507608 26.556021
                    CHANNELS 3 Zrotation Xrotation Yrotation
                    End Site
                    {
                        OFFSET -0.000000 0.000000 7.081605
                    }
                }
            }
        }
    }
}
MOTION
Frames:    8
Frame Time:    0.008333
21.701027    129.151260    -78.356918    -3.753917    3.492377    30.544428    -1.695074    4.864428    -4.404389    -10.748689    -3.642514    -1.832165    15.243954    1.573700    -0.683086    6.100865    -7.465748    -1.516571    14.698905    -6.765827    -18.400471    -26.272854    -31.284800    -43.999939    -9.849680    -44.611217    -93.715942    -35.802063    -42.137524    -41.163509    -12.373765    -1.648921    -9.240445    18.606213    18.235350    10.864354    14.695954    16.339079    -1.622806    7.076222    17.392653    14.345155    27.452179    -29.670555    5.383880    -92.218864    73.723907    52.803410    7.952886    -41.882832    39.154198    0.000000    0.000000    0.000000    -30.197569    -47.220634    -25.582121    55.762810    64.834381    -45.190929    -7.759581    -26.130775    -11.955040    0.000000    0.000000    0.000000    
21.764507    129.795593    -78.462616    -3.734452    3.461306    30.542625    -1.668567    4.791626    -4.402450    -10.806458    -3.629161    -1.831366    15.260942    1.519444    -0.690444    6.111399    -7.332915    -1.538694    14.770712    -6.724659    -18.371765    -26.280222    -31.271891    -44.048923    -9.819049    -44.653812    -93.696930    -35.751930    -42.174454    -41.148949    -12.345151    -1.635243    -9.204306    18.582884    18.177858    10.790851    14.730989    16.323484    -1.665796    7.192978    17.391722    14.258307    27.141994    -29.242594    5.420251    -88.659103    73.709946    49.493881    8.219026    -41.772465    39.291656    0.000000    0.000000    0.000000    -29.846649    -46.885609    -25.263201    54.236355    64.385422    -43.901775    -7.334227    -25.802862    -11.702354    0.000000    0.000000    0.000000    
21.823116    130.451843    -78.566208    -3.706775    3.436680    30.536453    -1.674301    4.711113    -4.393010    -10.821988    -3.598084    -1.825473    15.248980    1.501997    -0.670706    6.140388    -7.285045    -1.515453    14.765565    -6.767203    -18.391054    -26.190464    -31.188543    -44.005680    -9.754085    -44.751858    -93.657310    -35.835823    -42.181179    -41.191319    -12.366961    -1.625199    -9.247160    18.586765    18.316978    10.799431    14.631312    16.246782    -1.684955    7.296783    17.328743    14.257078    26.812719    -28.796665    5.450758    -84.983505    73.653038    46.027370    8.491877    -41.663441    39.457508    0.000000    0.000000    0.000000    -29.504339    -46.543961    -24.983423    52.686840    63.934933    -42.589741    -6.884217    -25.456366    -11.431112    0.000000    0.000000    0.000000    
21.880636    131.104553    -78.675064    -3.684962    3.432623    30.537405    -1.700206    4.610353    -4.392006    -10.810776    -3.564233    -1.821382    15.238251    1.481734    -0.675460    6.127716    -7.235595    -1.526844    14.750727    -6.804462    -18.406643    -26.089260    -31.101080    -43.936111    -9.664626    -44.832947    -93.622345    -35.840096    -42.172009    -41.249203    -12.416237    -1.616672    -9.274771    18.592646    18.320026    10.766185    14.638531    16.229401    -1.653206    7.248122    17.301750    14.255688    26.477118    -28.375816    5.563896    -81.299026    73.602661    42.597019    8.735862    -41.552158    39.590061    0.000000    0.000000    0.000000    -29.168873    -46.213120    -24.815704    51.022346    63.539825    -41.179230    -6.471888    -25.143419    -11.170385    0.000000    0.000000    0.000000    
21.932962    131.761765    -78.769577    -3.659638    3.421637    30.548164    -1.761482    4.493974    -4.409785    -10.760507    -3.509478    -1.820747    15.236799    1.489151    -0.662135    6.110512    -7.197621    -1.517253    14.768332    -6.717253    -18.442074    -26.009424    -31.188469    -43.891243    -9.667841    -44.878117    -93.643837    -35.848957    -42.224136    -41.241211    -12.448450    -1.604808    -9.268787    18.575996    18.290382    10.769131    14.669584    16.239656    -1.718486    7.229715    17.319830    14.282194    26.146542    -27.929655    5.614108    -77.595749    73.402061    39.169552    8.984681    -41.420818    39.700321    0.000000    0.000000    0.000000    -28.851852    -45.858189    -24.594118    49.532940    63.058765    -39.842575    -6.082393    -24.796600    -10.997948    0.000000    0.000000    0.000000    
22.003187    132.431244    -78.895409    -3.646460    3.406358    30.529509    -1.739969    4.408372    -4.414223    -10.797694    -3.517766    -1.823428    15.192748    1.515663    -0.662618    6.156825    -7.147090    -1.501219    14.770527    -6.691382    -18.447948    -25.931410    -31.170576    -43.869232    -9.597835    -44.948158    -93.579910    -35.927711    -42.209461    -41.236465    -12.468806    -1.585852    -9.248346    18.553860    18.238874    10.744199    14.716991    16.283791    -1.733595    7.269537    17.367044    14.217081    25.836714    -27.463531    5.685042    -73.923981    73.091782    35.779720    9.239758    -41.284443    39.814552    0.000000    0.000000    0.000000    -28.525005    -45.513573    -24.285290    48.161076    62.477959    -38.675987    -5.670163    -24.398211    -10.784293    0.000000    0.000000    0.000000    
22.071951    133.104218    -79.022285    -3.627909    3.401809    30.500095    -1.754879    4.314989    -4.398309    -10.801830    -3.518476    -1.818048    15.156360    1.530274    -0.684247    6.181542    -7.090136    -1.514685    14.752827    -6.708952    -18.481524    -25.933989    -31.243876    -43.840176    -9.696299    -44.816154    -93.608688    -35.907398    -42.143600    -41.297268    -12.495297    -1.533075    -9.246302    18.525160    18.249983    10.748663    14.723635    16.337694    -1.764485    7.223651    17.421383    14.254933    25.522608    -26.988802    5.823623    -70.279999    72.764145    32.375656    9.524147    -41.126701    39.967255    0.000000    0.000000    0.000000    -28.188490    -45.166355    -24.082033    46.624050    61.954529    -37.335972    -5.237656    -24.019512    -10.558667    0.000000    0.000000    0.000000    
22.140221    133.776352    -79.155319    -3.607598    3.390361    30.471764    -1.744459    4.276230    -4.452553    -10.845903    -3.584971    -1.843464    15.187905    1.523670    -0.642245    6.146560    -6.974539    -1.489326    14.822690    -6.686514    -18.332836    -25.960636    -31.166494    -43.894970    -9.663904    -44.886330    -93.618851    -35.895691    -42.212593    -41.237923    -12.509812    -1.564119    -9.165697    18.488886    18.256119    10.720749    14.795422    16.402130    -1.762706    7.154537    17.480019    14.287881    25.208462    -26.508816    5.965344    -66.747673    72.369415    29.168261    9.715475    -40.959373    40.005871    0.000000    0.000000    0.000000    -27.849567    -44.827267    -23.894234    45.112209    61.440022    -36.099968    -4.779994    -23.615904    -10.285359    0.000000    0.000000    0.000000    
